# xmcd
#
# Track frame offsets: 
#        150
#        10225
#        20800
#        29482
#        45497
#        56062
#        67200
#        77185
#        87500
#        99325
#        111027
#        121525
#        133225
#        143267
#        155052
#        167447
#        185767
#        202157
#        215185
#        227340
#        239402
#        252770
#        265850
#        275700
#        288102
#        301725
#
# Disc length: 4175 seconds
#
# Revision: 1
# Processed by: cddbd v1.5.2PL0 Copyright (c) Steve Scherf et al.
# Submitted via: ExactAudioCopy v0.99pb5
#
DISCID=77104d1a
DTITLE=Marty Robbins - Country 1960-1966 - Disc 2 of 4
DYEAR=1964
DGENRE=Country
TTITLE0=Melba From Melbourne (1964  CS 9020)
TTITLE1=Change That Dial (1964  CS 9020)
TTITLE2=Only A Picture Stops Time (1964  CS 9020)
TTITLE3=Southern Dixie Flyer (1964  CS 9020)
TTITLE4=Everybody's Darlin' Plus Mine (1964  CS 9020)
TTITLE5=She Means Nothing To Me Now (1964  CS 9020)
TTITLE6=Making Excuses (1964  CS 9020)
TTITLE7=Rainbow (1964  CS 9020)
TTITLE8=I Lived A Lifetime In A Day (1964  CS 9020)
TTITLE9=You Want Have Her Long (1964  CS 9020)
TTITLE10=The Things I Don't Know (1964  CS 9020)
TTITLE11=Urgently Needed (1964  CS 9020)
TTITLE12=I'll Have To Make Some Changes (1966  CS 94445)
TTITLE13=Nine Tenth Of The Law (Recorded 1964 - Released 1966  CS 9444
TTITLE13=5)
TTITLE14=Sorting Memories (1966  CS 94445)
TTITLE15=Hello Heartache (Recorded 1966 - Released 1969  GP-15 CS 9894
TTITLE15=)
TTITLE16=One Window, Four Walls (1966  CS 94445)
TTITLE17=Working My Way Through A Heartache (1966  CS 94445)
TTITLE18=Would You Take Me Back Again (1966  CS 94445)
TTITLE19=Do Me A Favor (1966  CS 94445)
TTITLE20=Sixteen Weeks (Recorded 1964 - Released 1966  CS 94445)
TTITLE21=Seconds To Remember (1966  CS 94445)
TTITLE22=Another Lost Week-End (1966  CS 94445)
TTITLE23=Last Night About This Time (Recorded 1964 - Released 1984  KC
TTITLE23=2 39575)
TTITLE24=This Song (Recorded 1966 - Released 1984  KC2 39575)
TTITLE25=Hello Baby (Recorded 1964 - Released 1995  BCD 1655-2)
EXTD=Country 1960-1966 - Disc 1 of 4\n© 1995 Bear Family Records\n\nUP
EXTD=C: 4000127156556\nCat Number: BCD 15655 DI\n\nOriginally Released
EXTD=October 17, 1995\n\nAMG EXPERT REVIEW: Cutting away all of Marty
EXTD=Robbins' rock and roll, Hawaiian and cowboy recordings, Bear Famil
EXTD=y's four-disc box set Country (1960-1966) contains nothing but hi
EXTD=s straight country and country-pop recordings of the early '60s. 
EXTD=During that era, Robbins was one of the most popular performers i
EXTD=n country music, scoring an impressive series of Top 10 hits and 
EXTD=pop crossovers like "Don't Worry" and "Devil Woman," which are al
EXTD=l included on this set. Where many Bear Family sets are so thorou
EXTD=gh and complete, they merely wind up being exhausting, Country (1
EXTD=960-1966) is entertaining from start to finish, since it is seque
EXTD=nced in a logical, listenable order and doesn't dwell on the rari
EXTD=ties. Any serious fan of Robbins will find the set an essential a
EXTD=ddition to their library, and it is arguably the finest Robbins b
EXTD=ox Bear Family has released. -- Stephen Thomas Erlewine\n\nHalf.c
EXTD=om Album Notes\nRecorded between 1960 and 1966. Includes liner no
EXTD=tes by Colin Escott.
EXTT0=
EXTT1=
EXTT2=
EXTT3=
EXTT4=
EXTT5=
EXTT6=
EXTT7=
EXTT8=
EXTT9=
EXTT10=
EXTT11=
EXTT12=
EXTT13=
EXTT14=
EXTT15=
EXTT16=
EXTT17=
EXTT18=
EXTT19=
EXTT20=
EXTT21=
EXTT22=
EXTT23=
EXTT24=
EXTT25=
PLAYORDER=
